<svg width="12" height="17" viewBox="0 0 12 17" fill="none" xmlns="http://www.w3.org/2000/svg">
<path d="M11.6814 7.13823L11.6813 7.1382C11.4233 6.87978 11.0047 6.87983 10.7469 7.13816L10.7469 7.13821L6.84861 11.0407L6.63517 11.2544V10.9524V0.787077C6.63517 0.421134 6.33868 0.125 5.9739 0.125C5.60888 0.125 5.31287 0.421142 5.31287 0.787197V10.9525V11.2545L5.09944 11.0409L1.25366 7.19123L1.25362 7.19119C0.995472 6.93258 0.577123 6.93258 0.318975 7.19119L0.318888 7.19128C0.0603801 7.44975 0.0603552 7.86886 0.318906 8.12747L0.318939 8.12751L5.50648 13.3203L5.50765 13.3214L5.50764 13.3214C5.52118 13.3354 5.53691 13.3494 5.55485 13.3644L5.56301 13.3705L5.56395 13.3712C5.56747 13.3737 5.57271 13.3775 5.57833 13.3819C5.58505 13.3867 5.59121 13.3914 5.59558 13.3947L5.59634 13.3953C5.60138 13.3992 5.60438 13.4014 5.60678 13.4031C5.60972 13.405 5.6131 13.407 5.61803 13.4099C5.62295 13.4128 5.63019 13.4171 5.63765 13.4218C5.6469 13.4275 5.65434 13.4319 5.66154 13.4357L5.66432 13.4371L5.6643 13.4372C5.66957 13.4401 5.67404 13.4422 5.68222 13.4461C5.68513 13.4474 5.6885 13.449 5.69253 13.4509L5.63888 13.5638M11.6814 7.13823L10.6584 7.04987C10.9651 6.74257 11.4629 6.74257 11.7698 7.04987C12.0768 7.35705 12.0768 7.8553 11.7697 8.16332M11.6814 7.13823C11.9395 7.39653 11.9397 7.81576 11.6811 8.07506M11.6814 7.13823L11.6811 8.07506M5.63888 13.5638L5.69153 13.4505C5.69833 13.4536 5.70326 13.456 5.70746 13.458C5.71254 13.4604 5.71656 13.4623 5.72156 13.4645C5.72799 13.4671 5.73491 13.4694 5.74641 13.4732L5.74771 13.4737L5.75109 13.4748L5.75107 13.4749C5.75485 13.4762 5.7581 13.4774 5.76096 13.4785C5.77001 13.4818 5.77517 13.4837 5.78095 13.4855L5.78115 13.4855C5.78737 13.4874 5.7926 13.4886 5.80066 13.4906C5.80329 13.4913 5.80622 13.492 5.80958 13.4928C5.81883 13.4949 5.82765 13.4973 5.83223 13.4985C5.83854 13.5001 5.84091 13.5007 5.84231 13.5009L5.84241 13.501C5.84505 13.5014 5.84787 13.5019 5.85149 13.5024C5.8535 13.5027 5.85575 13.503 5.85836 13.5034L5.85917 13.5035C5.86522 13.5044 5.87344 13.5056 5.88207 13.5071C5.8862 13.5078 5.88958 13.5083 5.89247 13.5088C5.89959 13.5099 5.90375 13.5106 5.90884 13.5111L5.89602 13.6354M5.63888 13.5638C5.64314 13.5658 5.64734 13.5678 5.6515 13.5698C5.65868 13.5732 5.66573 13.5765 5.67279 13.5797L5.60317 13.5462C5.61269 13.5515 5.62213 13.556 5.63155 13.5604C5.634 13.5615 5.63644 13.5627 5.63888 13.5638ZM5.89602 13.6354L5.90818 13.511C5.95162 13.5153 5.99559 13.5153 6.03902 13.511L6.05119 13.6354M5.89602 13.6354C5.94754 13.6405 5.99966 13.6405 6.05119 13.6354M5.89602 13.6354C5.8872 13.6345 5.87852 13.6331 5.86977 13.6317C5.86698 13.6313 5.86419 13.6308 5.86139 13.6304C5.8545 13.6291 5.84758 13.6281 5.84066 13.6272C5.83374 13.6262 5.82682 13.6252 5.81993 13.6239L6.08581 13.6304M6.05119 13.6354L6.03874 13.5111C6.0436 13.5106 6.04686 13.51 6.05287 13.5091C6.05603 13.5085 6.05994 13.5079 6.06525 13.5071C6.06578 13.507 6.06633 13.5069 6.06689 13.5068L6.08581 13.6304M6.05119 13.6354C6.05992 13.6346 6.06809 13.6332 6.07642 13.6319C6.07952 13.6314 6.08264 13.6309 6.08581 13.6304M6.08581 13.6304C6.0917 13.6293 6.09769 13.6285 6.10367 13.6277C6.11158 13.6267 6.11946 13.6256 6.12703 13.6239C6.13425 13.6225 6.14143 13.6207 6.14857 13.6188C6.15435 13.6173 6.16012 13.6158 6.16586 13.6146C6.17808 13.6116 6.1897 13.6089 6.20168 13.6053C6.2113 13.6025 6.22071 13.599 6.23024 13.5955C6.23317 13.5944 6.23611 13.5933 6.23907 13.5923C6.25129 13.5887 6.26243 13.5848 6.27441 13.5797C6.28592 13.5747 6.2973 13.5692 6.30832 13.5638C6.31114 13.5625 6.31395 13.5611 6.31676 13.5598C6.32588 13.5555 6.33493 13.5512 6.34391 13.5462C6.35481 13.5404 6.36512 13.5337 6.37554 13.5278C6.37979 13.5252 6.38398 13.5228 6.38814 13.5204C6.3955 13.5161 6.40274 13.5119 6.40993 13.507C6.41656 13.5025 6.42307 13.4976 6.4295 13.4927C6.43424 13.4891 6.43893 13.4856 6.4436 13.4823C6.44811 13.4786 6.45273 13.4752 6.45737 13.4719C6.46211 13.4684 6.46686 13.465 6.47152 13.4612C6.50136 13.4367 6.52891 13.4087 6.55468 13.3808C6.55749 13.3783 6.56033 13.3759 6.56317 13.3734C6.56952 13.3679 6.5759 13.3624 6.58211 13.3564L11.7697 8.16332M11.7697 8.16332L11.6812 8.07498L11.6811 8.07506M11.7697 8.16332L11.6811 8.07506M11.6811 8.07506L6.49469 13.2671C6.4912 13.2704 6.48851 13.2727 6.48436 13.2763C6.48132 13.2789 6.47748 13.2822 6.47196 13.2871L6.47152 13.2866L6.46277 13.2961C6.43865 13.3222 6.41558 13.3454 6.39225 13.3645L6.38408 13.3706C6.38053 13.3732 6.37453 13.3775 6.36805 13.3826C6.36156 13.3873 6.35534 13.3921 6.35147 13.395C6.34599 13.3992 6.34292 13.4014 6.34054 13.403L6.33953 13.4037C6.33506 13.4067 6.33314 13.4078 6.32965 13.4098C6.32637 13.4116 6.32169 13.4143 6.31217 13.4201C6.30145 13.4261 6.29788 13.4284 6.2953 13.4301C6.29288 13.4316 6.29133 13.4326 6.28554 13.4357L6.28552 13.4356L6.28268 13.4372C6.27779 13.44 6.27382 13.4418 6.26652 13.4453C6.26322 13.4469 6.25924 13.4487 6.25418 13.4512L6.25335 13.4516C6.24228 13.457 6.2335 13.4612 6.22528 13.4647L6.22499 13.4648C6.21858 13.4676 6.21231 13.4698 6.20375 13.4723L6.20369 13.4721L6.19649 13.4747C6.19135 13.4766 6.18725 13.4781 6.18381 13.4794C6.17604 13.4822 6.17164 13.4839 6.16625 13.4855L6.16573 13.4856C6.15963 13.4874 6.15424 13.4887 6.14535 13.4909C6.14303 13.4915 6.14048 13.4921 6.13762 13.4928L11.6811 8.07506ZM0.12521 16.875V15.1346H11.8431V16.875H0.12521Z" fill="#979797" stroke="black" stroke-width="0.25"/>
</svg>
