<svg width="29" height="29" viewBox="0 0 29 29" fill="none" xmlns="http://www.w3.org/2000/svg">
<rect width="29" height="29" rx="2" fill="#52495A"/>
<path d="M25.453 8.94937C25.6179 8.4025 25.453 8 24.66 8H22.0358C21.3675 8 21.06 8.34562 20.8952 8.73062C20.8952 8.73062 19.5586 11.9287 17.6695 14.0025C17.0591 14.6019 16.7784 14.7944 16.4443 14.7944C16.2794 14.7944 16.0255 14.6019 16.0255 14.055V8.94937C16.0255 8.29312 15.8384 8 15.2859 8H11.1602C10.7414 8 10.4919 8.30625 10.4919 8.59062C10.4919 9.21187 11.4365 9.35625 11.5345 11.1063V14.9037C11.5345 15.735 11.383 15.8881 11.0488 15.8881C10.1578 15.8881 7.99246 12.6769 6.70932 9.00188C6.45091 8.28875 6.19695 8 5.52419 8H2.89998C2.15148 8 2 8.34562 2 8.73062C2 9.41312 2.89107 12.8038 6.14794 17.2838C8.3177 20.3419 11.3741 22 14.1542 22C15.825 22 16.0299 21.6325 16.0299 20.9981C16.0299 18.0756 15.8785 17.8 16.7161 17.8C17.1037 17.8 17.772 17.9925 19.3314 19.4669C21.1135 21.2169 21.4076 22 22.4056 22H25.0298C25.7783 22 26.157 21.6325 25.9387 20.9062C25.4397 19.3794 22.067 16.2381 21.9155 16.0281C21.5279 15.5381 21.6392 15.3194 21.9155 14.8819C21.9199 14.8775 25.1233 10.45 25.453 8.94937Z" fill="black"/>
</svg>
