<svg width="29" height="29" viewBox="0 0 29 29" fill="none" xmlns="http://www.w3.org/2000/svg">
<path d="M29 1.59888V27.3946C29 28.2815 28.2815 28.9935 27.4011 28.9935H20.0087V17.769H23.7761L24.3393 13.3931H20.0022V10.5967C20.0022 9.3279 20.3518 8.46696 22.1708 8.46696H24.4882V4.55067C24.0868 4.49888 22.7145 4.37589 21.1092 4.37589C17.769 4.37589 15.4775 6.41496 15.4775 10.1629V13.3931H11.6971V17.769H15.4775V29H1.59888C0.718527 29 0 28.2815 0 27.4011V1.59888C0 0.718527 0.718527 0 1.59888 0H27.3946C28.2815 0 29 0.718527 29 1.59888Z" fill="#52495A"/>
</svg>
