<svg width="14" height="14" viewBox="0 0 14 14" fill="none" xmlns="http://www.w3.org/2000/svg">
<path d="M14 2C14 2.53043 13.7893 3.03914 13.4142 3.41421C13.0391 3.78929 12.5304 4 12 4C11.4696 4 10.9609 3.78929 10.5858 3.41421C10.2107 3.03914 10 2.53043 10 2C10 1.46957 10.2107 0.960859 10.5858 0.585787C10.9609 0.210714 11.4696 0 12 0C12.5304 0 13.0391 0.210714 13.4142 0.585787C13.7893 0.960859 14 1.46957 14 2Z" fill="#979797"/>
<path d="M14 12C14 12.5304 13.7893 13.0391 13.4142 13.4142C13.0391 13.7893 12.5304 14 12 14C11.4696 14 10.9609 13.7893 10.5858 13.4142C10.2107 13.0391 10 12.5304 10 12C10 11.4696 10.2107 10.9609 10.5858 10.5858C10.9609 10.2107 11.4696 10 12 10C12.5304 10 13.0391 10.2107 13.4142 10.5858C13.7893 10.9609 14 11.4696 14 12Z" fill="#979797"/>
<path d="M4 7C4 7.53043 3.78929 8.03914 3.41421 8.41421C3.03914 8.78929 2.53043 9 2 9C1.46957 9 0.960859 8.78929 0.585787 8.41421C0.210714 8.03914 0 7.53043 0 7C0 6.46957 0.210714 5.96086 0.585787 5.58579C0.960859 5.21071 1.46957 5 2 5C2.53043 5 3.03914 5.21071 3.41421 5.58579C3.78929 5.96086 4 6.46957 4 7Z" fill="#979797"/>
<path d="M12 2L2 7L12 12" stroke="#979797"/>
</svg>
